<svg height="400pt" viewBox="-38 0 400 400" width="400pt" xmlns="http://www.w3.org/2000/svg"><path d="m323.460938 172.019531v207.980469c0 11.046875-8.957032 20-20 20h-283.460938c-11.046875 0-20-8.953125-20-20v-207.980469c.00390625-11.042969 8.957031-19.996093 20-20h283.460938c11.042968.003907 19.996093 8.957031 20 20zm0 0" fill="#f8ec7d"/><g fill="#6fe3ff"><path d="m204.859375 0c35.726563 0 64.6875 28.964844 64.691406 64.691406v87.328125h-21.570312v-87.328125c-.023438-23.808594-19.3125-43.101562-43.121094-43.132812h-26.960937v-21.558594zm0 0"/><path d="m75.480469 150.941406v1.078125h-21.570313v-87.328125c0-35.726562 28.964844-64.691406 64.691406-64.691406h26.957032v21.558594h-26.957032c-23.808593.03125-43.097656 19.324218-43.121093 43.132812zm0 0"/><path d="m103.609375 287.691406c-6.449219 0-11.675781-5.222656-11.679687-11.671875-.003907-6.449219 5.222656-11.675781 11.671874-11.679687 6.445313-.003906 11.675782 5.222656 11.679688 11.671875-.003906 6.441406-5.226562 11.667969-11.671875 11.679687zm0-12c-.085937-.003906-.167969.027344-.230469.089844-.0625.058594-.097656.140625-.097656.230469 0 .179687.148438.328125.328125.328125.183594 0 .332031-.148438.332031-.328125 0-.089844-.039062-.171875-.097656-.230469-.0625-.0625-.148438-.09375-.234375-.089844zm0 0"/><path d="m219.851562 287.691406c-6.449218 0-11.679687-5.222656-11.679687-11.671875-.003906-6.449219 5.21875-11.675781 11.667969-11.679687 6.449218-.003906 11.675781 5.222656 11.679687 11.671875-.003906 6.441406-5.226562 11.667969-11.667969 11.679687zm0-12c-.089843-.003906-.171874.027344-.234374.089844-.0625.058594-.097657.140625-.097657.230469 0 .179687.148438.328125.332031.328125.179688 0 .328126-.148438.328126-.328125 0-.089844-.035157-.171875-.097657-.230469-.0625-.0625-.144531-.09375-.230469-.089844zm0 0"/><path d="m45.488281 287.691406c-6.445312 0-11.675781-5.222656-11.679687-11.671875 0-6.449219 5.222656-11.675781 11.671875-11.679687s11.675781 5.222656 11.679687 11.671875c-.007812 6.441406-5.226562 11.664062-11.671875 11.679687zm0-12c-.085937-.003906-.167969.027344-.230469.089844-.0625.058594-.097656.140625-.097656.230469 0 .085937.03125.171875.09375.234375s.148438.09375.234375.09375c.089844 0 .171875-.035156.230469-.097656.0625-.0625.09375-.144532.089844-.230469.003906-.085938-.03125-.167969-.089844-.230469-.0625-.058594-.144531-.09375-.230469-.089844zm0 0"/><path d="m277.96875 287.691406c-6.445312-.003906-11.667969-5.230468-11.667969-11.679687 0-6.445313 5.226563-11.671875 11.671875-11.671875 6.449219 0 11.675782 5.222656 11.675782 11.671875-.003907 6.445312-5.230469 11.671875-11.679688 11.679687zm0-12c-.085938-.003906-.167969.03125-.226562.089844-.0625.0625-.09375.144531-.09375.230469 0 .085937.03125.167969.09375.230469.058593.0625.140624.097656.226562.097656.089844 0 .171875-.03125.234375-.09375s.097656-.148438.097656-.234375c0-.089844-.035156-.171875-.097656-.230469-.0625-.0625-.148437-.09375-.234375-.089844zm0 0"/></g><path d="m161.730469 309.359375c-3.3125 0-6-2.6875-6-6v-10.847656c-.070313-11.257813 5.839843-21.703125 15.523437-27.445313 7.972656-4.617187 11.484375-14.292968 8.324219-22.953125-3.15625-8.65625-12.074219-13.800781-21.152344-12.199219-9.074219 1.605469-15.691406 9.488282-15.695312 18.707032 0 3.3125-2.6875 6-6 6s-6-2.6875-6-6c.011719-8.59375 3.578125-16.800782 9.855469-22.671875 6.277343-5.898438 14.738281-8.894531 23.328124-8.253907 13.585938.957032 24.953126 10.671876 28.023438 23.941407 3.066406 13.269531-2.882812 26.984375-14.667969 33.8125-5.984375 3.589843-9.617187 10.082031-9.539062 17.0625v10.847656c0 3.3125-2.6875 6-6 6zm0 0" fill="#e48e66"/><path d="m161.730469 334.398438c-5.613281 0-10.164063-4.554688-10.160157-10.167969.003907-5.613281 4.554688-10.164063 10.167969-10.160157 5.617188.003907 10.164063 4.554688 10.160157 10.167969-.007813 5.613281-4.558594 10.15625-10.167969 10.160157zm0-12c-1.015625 0-1.835938.816406-1.839844 1.832031-.003906 1.011719.816406 1.835937 1.828125 1.839843 1.015625.003907 1.839844-.816406 1.839844-1.832031.003906-1.011719-.816406-1.832031-1.828125-1.839843zm0 0" fill="#e48e66"/><path d="m145.558594 0h32.339844v21.558594h-32.339844zm0 0" fill="#2561a1"/></svg>